<?xml version="1.0" ?><svg viewBox="0 0 64 64" xmlns="http://www.w3.org/2000/svg"><defs><style>.cls-1{fill:#cac7c1;fill-rule:evenodd;}.cls-2{fill:#ae66d3;}.cls-3{fill:#fe4a13;}.cls-4{fill:#a3daf4;}</style></defs><g data-name="Galaxy" id="Galaxy-2"><path class="cls-1" d="M41.24,59A18.34,18.34,0,0,1,29.6,54.84a1,1,0,0,0-1.4.14,1,1,0,0,0,.13,1.41A20.35,20.35,0,0,0,41.24,61a1,1,0,1,0,0-2Z"/><path class="cls-1" d="M19,57.45a18.35,18.35,0,0,1-5.38-13,18.1,18.1,0,0,1,.78-5.29,1,1,0,1,0-1.92-.58A20.38,20.38,0,0,0,17.6,58.86,1,1,0,0,0,19,57.45Z"/><path class="cls-1" d="M23.67,46A18.36,18.36,0,0,1,23,38.51a1,1,0,1,0-2-.23,20.55,20.55,0,0,0,.74,8.28A1,1,0,1,0,23.67,46Z"/><path class="cls-1" d="M49.85,38.57a18.37,18.37,0,0,1-9.91,1.61,1,1,0,1,0-.23,2,20.39,20.39,0,0,0,11-1.78,1,1,0,1,0-.85-1.81Z"/><path class="cls-1" d="M32,26.09h-.11a5.33,5.33,0,1,0,.11,0Zm4.31-.56A7.25,7.25,0,0,0,32,24.09h-.1A20.37,20.37,0,0,0,15.3,32.8a1,1,0,0,0,.25,1.39,1,1,0,0,0,1.39-.25,18.48,18.48,0,0,1,9.19-6.89,7.33,7.33,0,0,0-1.43,4.31v0a20.36,20.36,0,0,0,34.77,14.4,1,1,0,0,0-1.41-1.41,18.37,18.37,0,0,1-30.4-7.12A7.34,7.34,0,0,0,32,38.69h0A20.36,20.36,0,0,0,50.2,27.48a1,1,0,1,0-1.79-.9,18.42,18.42,0,0,1-10.54,9.15,7.33,7.33,0,0,0,1.43-4.31v0A20.37,20.37,0,0,0,4.53,17,1,1,0,1,0,5.94,18.4a18.38,18.38,0,0,1,30.4,7.13Z"/><path class="cls-1" d="M57.43,32a17.75,17.75,0,0,1-2.38,2.93,1,1,0,1,0,1.41,1.41,20.3,20.3,0,0,0,2.65-3.24A1,1,0,0,0,57.43,32Z"/><path class="cls-1" d="M6.47,33.73a18.19,18.19,0,0,1,4.12-6.3,1,1,0,0,0,0-1.42,1,1,0,0,0-1.41,0A20.4,20.4,0,0,0,4.6,33a1,1,0,0,0,1.87.72Z"/><path class="cls-1" d="M39.4,14.36A18.4,18.4,0,0,1,41,24.28a1,1,0,0,0,2,.23,20.43,20.43,0,0,0-1.78-11,1,1,0,1,0-1.81.85Z"/><path class="cls-1" d="M15.79,23.78a18.42,18.42,0,0,1,6-1.65,1,1,0,1,0-.18-2A20.6,20.6,0,0,0,14.94,22a1,1,0,0,0,.85,1.82Z"/><path class="cls-1" d="M45,5.34a18.3,18.3,0,0,1,5.38,13A18.07,18.07,0,0,1,50,21.79a1,1,0,0,0,2,.37,21,21,0,0,0,.36-3.84,20.3,20.3,0,0,0-6-14.4,1,1,0,0,0-1.41,0A1,1,0,0,0,45,5.34Z"/><path class="cls-1" d="M29.18,4.94a18.31,18.31,0,0,1,6.56,4.22,1,1,0,0,0,1.42,0,1,1,0,0,0,0-1.41,20.34,20.34,0,0,0-7.28-4.69,1,1,0,1,0-.7,1.88Z"/><path class="cls-2" d="M14.56,32.2A3.82,3.82,0,1,1,10.75,36,3.82,3.82,0,0,1,14.56,32.2Z"/><path class="cls-3" d="M50.34,21.24A3.32,3.32,0,1,1,47,24.55,3.31,3.31,0,0,1,50.34,21.24Z"/><path class="cls-4" d="M25.7,48a2.79,2.79,0,1,1-2.78,2.79A2.79,2.79,0,0,1,25.7,48Z"/><path class="cls-4" d="M32,28.47a2.93,2.93,0,1,1-2.93,2.92A2.93,2.93,0,0,1,32,28.47Z"/><circle class="cls-3" cx="16.65" cy="6.92" r="2.48" transform="translate(7.16 22.24) rotate(-80.78)"/><path class="cls-2" d="M47.35,53.38a2.49,2.49,0,1,1-2.48,2.49A2.49,2.49,0,0,1,47.35,53.38Z"/></g></svg>